<svg width="24" height="24" viewBox="0 0 24 24" fill="none" xmlns="http://www.w3.org/2000/svg">
<path d="M13.5 1.5C13.5 0.670312 12.8297 0 12 0C11.1703 0 10.5 0.670312 10.5 1.5V2.03906C10.5 4.37813 7.67344 5.55 6.01875 3.89531L5.63437 3.51562C5.04844 2.92969 4.10156 2.92969 3.51562 3.51562C2.92969 4.10156 2.92969 5.05313 3.51562 5.63906L3.9 6.02344C5.55 7.67344 4.37813 10.5 2.03906 10.5H1.5C0.670312 10.5 0 11.1703 0 12C0 12.8297 0.670312 13.5 1.5 13.5H2.03906C4.37813 13.5 5.55 16.3266 3.89531 17.9813L3.51562 18.3656C2.92969 18.9516 2.92969 19.9031 3.51562 20.4891C4.10156 21.075 5.05313 21.075 5.63906 20.4891L6.02344 20.1047C7.67812 18.45 10.5047 19.6219 10.5047 21.9609V22.5C10.5047 23.3297 11.175 24 12.0047 24C12.8344 24 13.5047 23.3297 13.5047 22.5V21.9609C13.5047 19.6219 16.3313 18.45 17.9859 20.1047L18.3703 20.4891C18.9562 21.075 19.9078 21.075 20.4938 20.4891C21.0797 19.9031 21.0797 18.9516 20.4938 18.3656L20.1094 17.9813C18.4547 16.3266 19.6266 13.5 21.9656 13.5H22.5C23.3297 13.5 24 12.8297 24 12C24 11.1703 23.3297 10.5 22.5 10.5H21.9609C19.6219 10.5 18.45 7.67344 20.1047 6.01875L20.4891 5.63437C21.075 5.04844 21.075 4.09688 20.4891 3.51094C19.9031 2.925 18.9516 2.925 18.3656 3.51094L17.9813 3.89531C16.3266 5.55 13.5 4.37813 13.5 2.03906V1.5ZM8.25 10.5C8.25 10.2045 8.3082 9.91194 8.42127 9.63896C8.53434 9.36598 8.70008 9.11794 8.90901 8.90901C9.11794 8.70008 9.36598 8.53434 9.63896 8.42127C9.91194 8.3082 10.2045 8.25 10.5 8.25C10.7955 8.25 11.0881 8.3082 11.361 8.42127C11.634 8.53434 11.8821 8.70008 12.091 8.90901C12.2999 9.11794 12.4657 9.36598 12.5787 9.63896C12.6918 9.91194 12.75 10.2045 12.75 10.5C12.75 10.7955 12.6918 11.0881 12.5787 11.361C12.4657 11.634 12.2999 11.8821 12.091 12.091C11.8821 12.2999 11.634 12.4657 11.361 12.5787C11.0881 12.6918 10.7955 12.75 10.5 12.75C10.2045 12.75 9.91194 12.6918 9.63896 12.5787C9.36598 12.4657 9.11794 12.2999 8.90901 12.091C8.70008 11.8821 8.53434 11.634 8.42127 11.361C8.3082 11.0881 8.25 10.7955 8.25 10.5ZM14.25 13.125C14.5484 13.125 14.8345 13.2435 15.0455 13.4545C15.2565 13.6655 15.375 13.9516 15.375 14.25C15.375 14.5484 15.2565 14.8345 15.0455 15.0455C14.8345 15.2565 14.5484 15.375 14.25 15.375C13.9516 15.375 13.6655 15.2565 13.4545 15.0455C13.2435 14.8345 13.125 14.5484 13.125 14.25C13.125 13.9516 13.2435 13.6655 13.4545 13.4545C13.6655 13.2435 13.9516 13.125 14.25 13.125Z" fill="#FF6C0B"/>
</svg>
