<svg width="15" height="15" viewBox="0 0 15 15" fill="none" xmlns="http://www.w3.org/2000/svg">
<path id="Vector" d="M8.4375 0.9375C8.4375 0.418945 8.01855 0 7.5 0C6.98145 0 6.5625 0.418945 6.5625 0.9375V1.27441C6.5625 2.73633 4.7959 3.46875 3.76172 2.43457L3.52148 2.19727C3.15527 1.83105 2.56348 1.83105 2.19727 2.19727C1.83105 2.56348 1.83105 3.1582 2.19727 3.52441L2.4375 3.76465C3.46875 4.7959 2.73633 6.5625 1.27441 6.5625H0.9375C0.418945 6.5625 0 6.98145 0 7.5C0 8.01855 0.418945 8.4375 0.9375 8.4375H1.27441C2.73633 8.4375 3.46875 10.2041 2.43457 11.2383L2.19727 11.4785C1.83105 11.8447 1.83105 12.4395 2.19727 12.8057C2.56348 13.1719 3.1582 13.1719 3.52441 12.8057L3.76465 12.5654C4.79883 11.5312 6.56543 12.2637 6.56543 13.7256V14.0625C6.56543 14.5811 6.98438 15 7.50293 15C8.02148 15 8.44043 14.5811 8.44043 14.0625V13.7256C8.44043 12.2637 10.207 11.5312 11.2412 12.5654L11.4814 12.8057C11.8477 13.1719 12.4424 13.1719 12.8086 12.8057C13.1748 12.4395 13.1748 11.8447 12.8086 11.4785L12.5684 11.2383C11.5342 10.2041 12.2666 8.4375 13.7285 8.4375H14.0625C14.5811 8.4375 15 8.01855 15 7.5C15 6.98145 14.5811 6.5625 14.0625 6.5625H13.7256C12.2637 6.5625 11.5312 4.7959 12.5654 3.76172L12.8057 3.52148C13.1719 3.15527 13.1719 2.56055 12.8057 2.19434C12.4395 1.82812 11.8447 1.82812 11.4785 2.19434L11.2383 2.43457C10.2041 3.46875 8.4375 2.73633 8.4375 1.27441V0.9375ZM5.15625 6.5625C5.15625 6.37783 5.19262 6.19497 5.26329 6.02435C5.33396 5.85374 5.43755 5.69871 5.56813 5.56813C5.69871 5.43755 5.85374 5.33396 6.02435 5.26329C6.19497 5.19262 6.37783 5.15625 6.5625 5.15625C6.74717 5.15625 6.93003 5.19262 7.10065 5.26329C7.27126 5.33396 7.42629 5.43755 7.55687 5.56813C7.68745 5.69871 7.79104 5.85374 7.86171 6.02435C7.93238 6.19497 7.96875 6.37783 7.96875 6.5625C7.96875 6.74717 7.93238 6.93003 7.86171 7.10065C7.79104 7.27126 7.68745 7.42629 7.55687 7.55687C7.42629 7.68745 7.27126 7.79104 7.10065 7.86171C6.93003 7.93238 6.74717 7.96875 6.5625 7.96875C6.37783 7.96875 6.19497 7.93238 6.02435 7.86171C5.85374 7.79104 5.69871 7.68745 5.56813 7.55687C5.43755 7.42629 5.33396 7.27126 5.26329 7.10065C5.19262 6.93003 5.15625 6.74717 5.15625 6.5625ZM8.90625 8.20312C9.09273 8.20312 9.27157 8.2772 9.40343 8.40907C9.5353 8.54093 9.60938 8.71977 9.60938 8.90625C9.60938 9.09273 9.5353 9.27157 9.40343 9.40343C9.27157 9.5353 9.09273 9.60938 8.90625 9.60938C8.71977 9.60938 8.54093 9.5353 8.40907 9.40343C8.2772 9.27157 8.20312 9.09273 8.20312 8.90625C8.20312 8.71977 8.2772 8.54093 8.40907 8.40907C8.54093 8.2772 8.71977 8.20312 8.90625 8.20312Z" fill="#059669"/>
</svg>
