<svg width="18" height="18" viewBox="0 0 18 18" fill="none" xmlns="http://www.w3.org/2000/svg">
<g id="Frame">
<g clip-path="url(#clip0_4496_2242)">
<path id="Vector" d="M10.125 1.125C10.125 0.502734 9.62227 0 9 0C8.37773 0 7.875 0.502734 7.875 1.125V1.5293C7.875 3.28359 5.75508 4.1625 4.51406 2.92148L4.22578 2.63672C3.78633 2.19727 3.07617 2.19727 2.63672 2.63672C2.19727 3.07617 2.19727 3.78984 2.63672 4.2293L2.925 4.51758C4.1625 5.75508 3.28359 7.875 1.5293 7.875H1.125C0.502734 7.875 0 8.37773 0 9C0 9.62227 0.502734 10.125 1.125 10.125H1.5293C3.28359 10.125 4.1625 12.2449 2.92148 13.4859L2.63672 13.7742C2.19727 14.2137 2.19727 14.9273 2.63672 15.3668C3.07617 15.8063 3.78984 15.8063 4.2293 15.3668L4.51758 15.0785C5.75859 13.8375 7.87852 14.7164 7.87852 16.4707V16.875C7.87852 17.4973 8.38125 18 9.00352 18C9.62578 18 10.1285 17.4973 10.1285 16.875V16.4707C10.1285 14.7164 12.2484 13.8375 13.4895 15.0785L13.7777 15.3668C14.2172 15.8063 14.9309 15.8063 15.3703 15.3668C15.8098 14.9273 15.8098 14.2137 15.3703 13.7742L15.082 13.4859C13.841 12.2449 14.7199 10.125 16.4742 10.125H16.875C17.4973 10.125 18 9.62227 18 9C18 8.37773 17.4973 7.875 16.875 7.875H16.4707C14.7164 7.875 13.8375 5.75508 15.0785 4.51406L15.3668 4.22578C15.8063 3.78633 15.8063 3.07266 15.3668 2.6332C14.9273 2.19375 14.2137 2.19375 13.7742 2.6332L13.4859 2.92148C12.2449 4.1625 10.125 3.28359 10.125 1.5293V1.125ZM6.1875 7.875C6.1875 7.65339 6.23115 7.43396 6.31595 7.22922C6.40076 7.02448 6.52506 6.83846 6.68176 6.68176C6.83846 6.52506 7.02448 6.40076 7.22922 6.31595C7.43396 6.23115 7.65339 6.1875 7.875 6.1875C8.09661 6.1875 8.31604 6.23115 8.52078 6.31595C8.72552 6.40076 8.91154 6.52506 9.06824 6.68176C9.22494 6.83846 9.34924 7.02448 9.43405 7.22922C9.51885 7.43396 9.5625 7.65339 9.5625 7.875C9.5625 8.09661 9.51885 8.31604 9.43405 8.52078C9.34924 8.72552 9.22494 8.91154 9.06824 9.06824C8.91154 9.22494 8.72552 9.34924 8.52078 9.43405C8.31604 9.51885 8.09661 9.5625 7.875 9.5625C7.65339 9.5625 7.43396 9.51885 7.22922 9.43405C7.02448 9.34924 6.83846 9.22494 6.68176 9.06824C6.52506 8.91154 6.40076 8.72552 6.31595 8.52078C6.23115 8.31604 6.1875 8.09661 6.1875 7.875ZM10.6875 9.84375C10.9113 9.84375 11.1259 9.93264 11.2841 10.0909C11.4424 10.2491 11.5312 10.4637 11.5312 10.6875C11.5312 10.9113 11.4424 11.1259 11.2841 11.2841C11.1259 11.4424 10.9113 11.5312 10.6875 11.5312C10.4637 11.5312 10.2491 11.4424 10.0909 11.2841C9.93264 11.1259 9.84375 10.9113 9.84375 10.6875C9.84375 10.4637 9.93264 10.2491 10.0909 10.0909C10.2491 9.93264 10.4637 9.84375 10.6875 9.84375Z" fill="#2563EB"/>
</g>
</g>
<defs>
<clipPath id="clip0_4496_2242">
<path d="M0 0H18V18H0V0Z" fill="white"/>
</clipPath>
</defs>
</svg>
